<mxfile host="app.diagrams.net" modified="2022-10-21T11:31:04.641Z" agent="5.0 (Windows)" etag="p4ccuvZ4uZt1EohRmkkZ" version="20.5.0" type="github">
  <diagram name="Page-1" id="10a91c8b-09ff-31b1-d368-03940ed4cc9e">
    <mxGraphModel dx="2062" dy="1112" grid="1" gridSize="10" guides="1" tooltips="1" connect="1" arrows="1" fold="1" page="1" pageScale="1" pageWidth="1100" pageHeight="850" background="none" math="0" shadow="0">
      <root>
        <mxCell id="0" />
        <mxCell id="1" parent="0" />
        <mxCell id="N5o0ojx1bypNniNuOJeC-1" value="élève" style="shape=umlActor;verticalLabelPosition=bottom;verticalAlign=top;html=1;outlineConnect=0;" vertex="1" parent="1">
          <mxGeometry x="65" y="320" width="90" height="160" as="geometry" />
        </mxCell>
        <mxCell id="N5o0ojx1bypNniNuOJeC-5" value="&lt;div&gt;tuteur&lt;/div&gt;&lt;div&gt;&lt;br&gt;&lt;/div&gt;" style="shape=umlActor;verticalLabelPosition=bottom;verticalAlign=top;html=1;outlineConnect=0;" vertex="1" parent="1">
          <mxGeometry x="945" y="320" width="90" height="160" as="geometry" />
        </mxCell>
        <mxCell id="N5o0ojx1bypNniNuOJeC-8" value="Connexion" style="ellipse;whiteSpace=wrap;html=1;" vertex="1" parent="1">
          <mxGeometry x="425" y="365" width="190" height="70" as="geometry" />
        </mxCell>
        <mxCell id="N5o0ojx1bypNniNuOJeC-9" value="Inscription" style="ellipse;whiteSpace=wrap;html=1;" vertex="1" parent="1">
          <mxGeometry x="425" y="710" width="190" height="70" as="geometry" />
        </mxCell>
        <mxCell id="N5o0ojx1bypNniNuOJeC-12" value="" style="endArrow=classic;html=1;rounded=0;" edge="1" parent="1" source="N5o0ojx1bypNniNuOJeC-1" target="N5o0ojx1bypNniNuOJeC-9">
          <mxGeometry width="50" height="50" relative="1" as="geometry">
            <mxPoint x="165" y="360.0940825746891" as="sourcePoint" />
            <mxPoint x="431.96000000000004" y="64.02999999999997" as="targetPoint" />
            <Array as="points" />
          </mxGeometry>
        </mxCell>
        <mxCell id="N5o0ojx1bypNniNuOJeC-13" value="" style="endArrow=classic;html=1;rounded=0;" edge="1" parent="1" source="N5o0ojx1bypNniNuOJeC-5" target="N5o0ojx1bypNniNuOJeC-9">
          <mxGeometry width="50" height="50" relative="1" as="geometry">
            <mxPoint x="925" y="385.20000000000005" as="sourcePoint" />
            <mxPoint x="595" y="86" as="targetPoint" />
            <Array as="points" />
          </mxGeometry>
        </mxCell>
        <mxCell id="N5o0ojx1bypNniNuOJeC-14" value="" style="endArrow=none;dashed=1;html=1;dashPattern=1 3;strokeWidth=2;rounded=0;exitX=0.5;exitY=0;exitDx=0;exitDy=0;entryX=0.5;entryY=1;entryDx=0;entryDy=0;" edge="1" parent="1" source="N5o0ojx1bypNniNuOJeC-8" target="N5o0ojx1bypNniNuOJeC-15">
          <mxGeometry width="50" height="50" relative="1" as="geometry">
            <mxPoint x="635" y="60" as="sourcePoint" />
            <mxPoint x="685" y="10" as="targetPoint" />
          </mxGeometry>
        </mxCell>
        <mxCell id="N5o0ojx1bypNniNuOJeC-15" value="Récupération de mot de passe" style="ellipse;whiteSpace=wrap;html=1;" vertex="1" parent="1">
          <mxGeometry x="425" y="30" width="190" height="70" as="geometry" />
        </mxCell>
        <mxCell id="N5o0ojx1bypNniNuOJeC-16" value="" style="endArrow=none;dashed=1;html=1;dashPattern=1 3;strokeWidth=2;rounded=0;exitX=0.5;exitY=0;exitDx=0;exitDy=0;entryX=0.5;entryY=1;entryDx=0;entryDy=0;" edge="1" parent="1" source="N5o0ojx1bypNniNuOJeC-9" target="N5o0ojx1bypNniNuOJeC-8">
          <mxGeometry width="50" height="50" relative="1" as="geometry">
            <mxPoint x="505" y="130" as="sourcePoint" />
            <mxPoint x="555" y="80" as="targetPoint" />
          </mxGeometry>
        </mxCell>
        <mxCell id="N5o0ojx1bypNniNuOJeC-17" value="" style="shape=flexArrow;endArrow=classic;html=1;rounded=0;entryX=0;entryY=0.5;entryDx=0;entryDy=0;" edge="1" parent="1" source="N5o0ojx1bypNniNuOJeC-1" target="N5o0ojx1bypNniNuOJeC-8">
          <mxGeometry width="50" height="50" relative="1" as="geometry">
            <mxPoint x="165" y="370" as="sourcePoint" />
            <mxPoint x="215" y="320" as="targetPoint" />
            <Array as="points" />
          </mxGeometry>
        </mxCell>
        <mxCell id="N5o0ojx1bypNniNuOJeC-18" value="" style="shape=flexArrow;endArrow=classic;html=1;rounded=0;entryX=1;entryY=0.5;entryDx=0;entryDy=0;" edge="1" parent="1" source="N5o0ojx1bypNniNuOJeC-5" target="N5o0ojx1bypNniNuOJeC-8">
          <mxGeometry width="50" height="50" relative="1" as="geometry">
            <mxPoint x="685" y="401.42857142857133" as="sourcePoint" />
            <mxPoint x="955" y="200" as="targetPoint" />
            <Array as="points" />
          </mxGeometry>
        </mxCell>
        <mxCell id="N5o0ojx1bypNniNuOJeC-19" value="" style="endArrow=classic;html=1;rounded=0;entryX=0;entryY=0.5;entryDx=0;entryDy=0;exitX=0.5;exitY=0;exitDx=0;exitDy=0;exitPerimeter=0;" edge="1" parent="1" source="N5o0ojx1bypNniNuOJeC-1" target="N5o0ojx1bypNniNuOJeC-15">
          <mxGeometry width="50" height="50" relative="1" as="geometry">
            <mxPoint x="145" y="220.00292682926835" as="sourcePoint" />
            <mxPoint x="464.26360679765276" y="434.14315090086467" as="targetPoint" />
            <Array as="points" />
          </mxGeometry>
        </mxCell>
        <mxCell id="N5o0ojx1bypNniNuOJeC-20" value="" style="endArrow=classic;html=1;rounded=0;entryX=1;entryY=0.5;entryDx=0;entryDy=0;exitX=0.5;exitY=0;exitDx=0;exitDy=0;exitPerimeter=0;" edge="1" parent="1" source="N5o0ojx1bypNniNuOJeC-5" target="N5o0ojx1bypNniNuOJeC-15">
          <mxGeometry width="50" height="50" relative="1" as="geometry">
            <mxPoint x="645" y="317.5" as="sourcePoint" />
            <mxPoint x="960" y="12.5" as="targetPoint" />
            <Array as="points" />
          </mxGeometry>
        </mxCell>
      </root>
    </mxGraphModel>
  </diagram>
</mxfile>
